{"title":"Okamoto Nagisa - Beach Volleyball player","uid":10824298,"size":908622963,"categoryP":"porn","categoryS":"movie_clips","magnet":"?xt=urn:btih:617ab3e60c08e365efc2416509a238b88fd9d451&amp;dn=Okamoto+Nagisa+-+Beach+Volleyball+player&amp;tr=udp%3A%2F%2Ftracker.openbittorrent.com%3A80&amp;tr=udp%3A%2F%2Fopen.demonii.com%3A1337&amp;tr=udp%3A%2F%2Ftracker.coppersurfer.tk%3A6969&amp;tr=udp%3A%2F%2Fexodus.desync.com%3A6969","seeders":2,"leechers":0,"uploader":"ThousandPeers","files":-1,"time":1408567025,"description":"Format                                   : AVI\nFormat/Info                              : Audio Video Interleave\nFile size                                : 865 MiB\nDuration                                 : 1h 29mn\nOverall bit rate                         : 1 353 Kbps\n\nVideo\nID                                       : 0\nFormat                                   : MPEG-4 Visual\nFormat settings, BVOP                    : 1\nFormat settings, QPel                    : No\nFormat settings, GMC                     : No warppoints\nFormat settings, Matrix                  : Default (H.263)\nMuxing mode                              : Packed bitstream\nCodec ID                                 : DX50\nCodec ID/Hint                            : DivX 5\nDuration                                 : 1h 29mn\nBit rate                                 : 1 150 Kbps\nWidth                                    : 640 pixels\nHeight                                   : 480 pixels\nDisplay aspect ratio                     : 4:3\nFrame rate                               : 29.970 fps\nColor space                              : YUV\nChroma subsampling                       : 4:2:0\nBit depth                                : 8 bits\nScan type                                : Progressive\nCompression mode                         : Lossy\nBits/(Pixel*Frame)                       : 0.125\nStream size                              : 735 MiB (85%)\nWriting library                          : DivX 6.6.1.4\n\nAudio\nID                                       : 1\nFormat                                   : MPEG Audio\nFormat version                           : Version 1\nFormat profile                           : Layer 3\nCodec ID                                 : 55\nCodec ID/Hint                            : MP3\nDuration                                 : 1h 29mn\nBit rate mode                            : Constant\nBit rate                                 : 192 Kbps\nChannel(s)                               : 2 channels\nSampling rate                            : 44.1 KHz\nCompression mode                         : Lossy\nDelay relative to video                  : 26ms\nStream size                              : 123 MiB (14%)","torrent":{"xt":"urn:btih:617ab3e60c08e365efc2416509a238b88fd9d451","amp;dn":"Okamoto+Nagisa+-+Beach+Volleyball+player","amp;tr":["udp%3A%2F%2Ftracker.openbittorrent.com%3A80","udp%3A%2F%2Fopen.demonii.com%3A1337","udp%3A%2F%2Ftracker.coppersurfer.tk%3A6969","udp%3A%2F%2Fexodus.desync.com%3A6969"],"infoHash":"617ab3e60c08e365efc2416509a238b88fd9d451","infoHashBuffer":{"type":"Buffer","data":[97,122,179,230,12,8,227,101,239,194,65,101,9,162,56,184,143,217,212,81]},"announce":[],"urlList":[]}}